<svg version="1.0" xmlns="http://www.w3.org/2000/svg"
 width="32.000000pt" height="32.000000pt" viewBox="0 0 128.000000 128.000000"
 preserveAspectRatio="xMidYMid meet">

<g transform="translate(0.000000,128.000000) scale(0.100000,-0.100000)"
fill="#000000" stroke="none">
<path d="M300 1109 c0 -29 74 -78 177 -118 59 -23 121 -53 138 -65 l31 -24 38
23 37 22 -38 23 c-56 33 -127 59 -207 76 -39 8 -94 28 -123 44 -29 17 -53 25
-53 19z"/>
<path d="M120 1042 c0 -13 52 -58 86 -75 17 -9 61 -27 96 -40 132 -50 218
-109 218 -149 0 -29 -33 -21 -52 12 -10 18 -25 30 -37 30 -17 0 -19 -5 -14
-35 6 -35 5 -35 -30 -35 -20 0 -48 -5 -63 -10 l-27 -11 26 -27 c15 -16 27 -31
27 -34 0 -4 -17 -9 -38 -13 -37 -6 -110 -45 -84 -45 14 0 52 -36 52 -50 0 -5
-9 -10 -20 -10 -42 0 -1 -42 138 -140 79 -55 146 -100 151 -100 4 0 22 11 41
25 19 14 43 25 54 25 13 0 48 -29 93 -77 71 -75 71 -76 55 -101 -16 -25 -16
-25 13 -19 17 3 52 10 79 15 56 11 62 18 64 74 2 39 1 40 -16 25 -30 -27 -42
-21 -31 15 11 40 7 44 -25 22 l-27 -17 7 44 c7 44 7 44 -14 26 -24 -22 -37 -8
-28 30 5 18 3 24 -6 21 -14 -5 -79 92 -71 105 8 13 109 3 128 -13 14 -12 13
-15 -7 -38 l-23 -25 43 6 c46 6 50 2 25 -25 -22 -24 -15 -29 30 -19 43 10 45
6 15 -26 l-21 -23 27 0 c15 0 36 5 47 11 19 9 19 9 10 -10 -6 -11 -16 -23 -21
-26 -23 -14 -7 -22 30 -15 46 8 48 5 18 -27 l-21 -23 27 0 c42 0 96 30 118 64
24 39 17 83 -17 113 -15 13 -22 28 -19 38 7 18 -4 85 -14 85 -4 0 -13 -13 -19
-30 -6 -16 -16 -30 -21 -30 -6 0 -35 29 -66 64 -42 47 -56 71 -56 94 0 46 -18
78 -61 106 -21 14 -52 46 -69 71 -40 58 -64 64 -128 31 -28 -14 -57 -26 -63
-26 -6 0 -37 15 -68 34 -72 44 -141 71 -258 101 -52 13 -110 33 -129 44 -37
22 -54 26 -54 13z m452 -361 c-4 -35 -7 -36 -54 -13 -24 11 -54 25 -68 31 -20
8 -10 10 50 8 73 -2 75 -3 72 -26z m288 -31 c11 -11 20 -25 20 -31 0 -18 -88
-4 -111 17 -19 17 -19 19 -2 25 34 14 73 9 93 -11z m-322 -61 c3 -23 0 -25
-35 -25 -21 0 -51 -4 -68 -9 -28 -8 -29 -7 -15 10 23 28 73 56 95 53 13 -2 21
-12 23 -29z m-20 -81 c7 -7 12 -17 12 -22 -1 -10 -91 -58 -97 -52 -5 5 56 86
65 86 4 0 13 -5 20 -12z"/>
</g>
</svg>
