<svg version="1.0" xmlns="http://www.w3.org/2000/svg" width="32.000000pt" height="32.000000pt" viewBox="0 0 128.000000 128.000000" preserveAspectRatio="xMidYMid meet">
    <g transform="translate(0.000000,128.000000) scale(0.100000,-0.100000)" fill="#000000" stroke="none">
        <path d="M881 937 c-61 -21 -69 -28 -212 -183 -81 -89 -149 -165 -151 -170 -1 -5 12 -24 29 -42 l32 -33 168 154 c161 148 170 158 187 213 10 33 21 65 23 72 6 15 1 15 -76 -11z"/>
        <path d="M400 595 c-11 -13 -8 -21 19 -49 l32 -33 -35 -44 c-19 -24 -48 -51 -63 -60 -33 -18 -41 -50 -17 -73 23 -24 55 -16 73 17 9 15 36 44 60 63 l44 35 34 -33 c31 -30 34 -31 49 -16 15 15 13 21 -24 73 -33 45 -135 135 -155 135 -3 0 -10 -7 -17 -15z"/>
    </g>
</svg>